<?xml version="1.0" encoding="UTF-8"?>
<svg width="18px" height="17px" viewBox="0 0 18 17" version="1.1" xmlns="http://www.w3.org/2000/svg" xmlns:xlink="http://www.w3.org/1999/xlink">
    <!-- Generator: Sketch 47.1 (45422) - http://www.bohemiancoding.com/sketch -->
    <title>github - FontAwesome</title>
    <desc>Created with Sketch.</desc>
    <defs></defs>
    <g id="Symbols" stroke="none" stroke-width="1" fill="none" fill-rule="evenodd">
        <g id="github" transform="translate(-14.000000, -14.000000)" fill="#F3EFCD">
            <g id="Group-4">
                <path d="M22.5714286,14.2857143 C24.1264959,14.2857143 25.5606333,14.668895 26.8738839,15.4352679 C28.1871345,16.2016407 29.2269307,17.2414369 29.9933036,18.5546875 C30.7596765,19.8679381 31.1428571,21.3020756 31.1428571,22.8571429 C31.1428571,24.7247117 30.5978477,26.4043824 29.5078125,27.8962054 C28.4177773,29.3880283 27.0096812,30.420384 25.2834821,30.9933036 C25.0825883,31.0305061 24.9337802,31.0044647 24.8370536,30.9151786 C24.7403269,30.8258924 24.6919643,30.7142864 24.6919643,30.5803571 C24.6919643,30.5580356 24.6938244,30.2734402 24.6975446,29.7265625 C24.7012649,29.1796848 24.703125,28.6793177 24.703125,28.2254464 C24.703125,27.5037166 24.5096746,26.9754481 24.1227679,26.640625 C24.5468771,26.5959819 24.9281977,26.5290183 25.2667411,26.4397321 C25.6052844,26.350446 25.9549833,26.2053581 26.3158482,26.0044643 C26.6767131,25.8035704 26.9780494,25.5561771 27.2198661,25.2622768 C27.4616828,24.9683765 27.6588534,24.5777554 27.8113839,24.0904018 C27.9639145,23.6030482 28.0401786,23.0431579 28.0401786,22.4107143 C28.0401786,21.5252932 27.7462827,20.7589318 27.1584821,20.1116071 C27.4337811,19.4345204 27.4040195,18.6755994 27.0691964,17.8348214 C26.8608621,17.7678568 26.5595258,17.808779 26.1651786,17.9575893 C25.7708314,18.1063996 25.4285729,18.2700884 25.1383929,18.4486607 L24.7142857,18.7165179 C24.022318,18.5230645 23.3080394,18.4263393 22.5714286,18.4263393 C21.8348177,18.4263393 21.1205392,18.5230645 20.4285714,18.7165179 C20.3095232,18.6346722 20.1514147,18.5342268 19.9542411,18.4151786 C19.7570675,18.2961304 19.4464307,18.1529026 19.0223214,17.9854911 C18.5982122,17.8180795 18.2819951,17.7678568 18.0736607,17.8348214 C17.7388376,18.6755994 17.709076,19.4345204 17.984375,20.1116071 C17.3965744,20.7589318 17.1026786,21.5252932 17.1026786,22.4107143 C17.1026786,23.0431579 17.1789427,23.6011881 17.3314732,24.0848214 C17.4840037,24.5684548 17.6793143,24.9590759 17.9174107,25.2566964 C18.1555071,25.554317 18.4549833,25.8035704 18.8158482,26.0044643 C19.1767131,26.2053581 19.526412,26.350446 19.8649554,26.4397321 C20.2034987,26.5290183 20.5848193,26.5959819 21.0089286,26.640625 C20.7187485,26.9084835 20.5364587,27.2916642 20.4620536,27.7901786 C20.3058028,27.8645837 20.1383937,27.9203867 19.9598214,27.9575893 C19.7812491,27.9947919 19.5691977,28.0133929 19.3236607,28.0133929 C19.0781238,28.0133929 18.8344506,27.9334085 18.5926339,27.7734375 C18.3508172,27.6134665 18.1443461,27.3809539 17.9732143,27.0758929 C17.8318445,26.8377964 17.6514148,26.644346 17.4319196,26.4955357 C17.2124245,26.3467254 17.0282746,26.2574406 16.8794643,26.2276786 L16.65625,26.1941964 C16.4999992,26.1941964 16.3921134,26.2109373 16.3325893,26.2444196 C16.2730652,26.277902 16.2544642,26.3206843 16.2767857,26.3727679 C16.2991073,26.4248515 16.3325891,26.4769343 16.3772321,26.5290179 C16.4218752,26.5811015 16.4702378,26.6257439 16.5223214,26.6629464 L16.6004464,26.71875 C16.7641377,26.7931551 16.9259665,26.9345228 17.0859375,27.1428571 C17.2459085,27.3511915 17.3630949,27.5409218 17.4375,27.7120536 L17.5491071,27.96875 C17.6458338,28.2514895 17.8095227,28.4802819 18.0401786,28.6551339 C18.2708345,28.829986 18.5200879,28.941592 18.7879464,28.9899554 C19.0558049,29.0383187 19.3143589,29.0643601 19.5636161,29.0680804 C19.8128733,29.0718006 20.0193444,29.0587799 20.1830357,29.0290179 L20.4397321,28.984375 C20.4397321,29.2671145 20.4415922,29.5963523 20.4453125,29.9720982 C20.4490328,30.3478441 20.4508929,30.5505951 20.4508929,30.5803571 C20.4508929,30.7142864 20.4025302,30.8258924 20.3058036,30.9151786 C20.2090769,31.0044647 20.0602689,31.0305061 19.859375,30.9933036 C18.1331759,30.420384 16.7250799,29.3880283 15.6350446,27.8962054 C14.5450094,26.4043824 14,24.7247117 14,22.8571429 C14,21.3020756 14.3831807,19.8679381 15.1495536,18.5546875 C15.9159265,17.2414369 16.9557226,16.2016407 18.2689732,15.4352679 C19.5822238,14.668895 21.0163613,14.2857143 22.5714286,14.2857143 Z M17.2477679,26.5959821 C17.2180058,26.6555063 17.1696432,26.6629467 17.1026786,26.6183036 C17.0282734,26.581101 17.002232,26.5364586 17.0245536,26.484375 C17.0468751,26.4471724 17.0952377,26.439732 17.1696429,26.4620536 C17.244048,26.4992561 17.2700894,26.5438985 17.2477679,26.5959821 Z M17.59375,26.9754464 C17.5491069,27.02753 17.4895837,27.0163694 17.4151786,26.9419643 C17.348214,26.8601186 17.3407735,26.8005954 17.3928571,26.7633929 C17.4375002,26.7187498 17.4970234,26.7299104 17.5714286,26.796875 C17.6383932,26.8787206 17.6458336,26.9382439 17.59375,26.9754464 Z M17.9285714,27.4776786 C17.8690473,27.5223217 17.8058039,27.4962802 17.7388393,27.3995536 C17.6718747,27.3028269 17.6718747,27.2358633 17.7388393,27.1986607 C17.8058039,27.1465771 17.8690473,27.1688983 17.9285714,27.265625 C17.995536,27.3549112 17.995536,27.425595 17.9285714,27.4776786 Z M18.3973214,27.9464286 C18.3377973,28.0133932 18.2633933,28.0022326 18.1741071,27.9129464 C18.0773805,27.8311008 18.0624997,27.760417 18.1294643,27.7008929 C18.1889884,27.6339282 18.2633924,27.6450888 18.3526786,27.734375 C18.4419647,27.8162206 18.4568455,27.8869045 18.3973214,27.9464286 Z M19.0334821,28.2254464 C19.0037201,28.3147326 18.9330363,28.3370538 18.8214286,28.2924107 C18.6949398,28.2626487 18.6465772,28.2068456 18.6763393,28.125 C18.7061013,28.0431544 18.7767852,28.0171129 18.8883929,28.046875 C19.0074411,28.0840776 19.0558037,28.1436008 19.0334821,28.2254464 Z M19.7366071,28.28125 C19.7366071,28.3630956 19.6770839,28.4040179 19.5580357,28.4040179 C19.431547,28.4188989 19.3683036,28.3779767 19.3683036,28.28125 C19.3683036,28.1994044 19.4278268,28.1584821 19.546875,28.1584821 C19.6733637,28.1436011 19.7366071,28.1845233 19.7366071,28.28125 Z M20.3839286,28.1696429 C20.3988096,28.244048 20.3467268,28.2961308 20.2276786,28.3258929 C20.1086304,28.3556549 20.0416667,28.3258933 20.0267857,28.2366071 C20.0119047,28.147321 20.0639875,28.091518 20.1830357,28.0691964 C20.3020839,28.0543154 20.3690475,28.0877972 20.3839286,28.1696429 Z" id="github---FontAwesome"></path>
            </g>
        </g>
    </g>
</svg>