<?xml version="1.0" encoding="UTF-8"?>
<svg width="70px" height="70px" viewBox="0 0 70 70" version="1.1" xmlns="http://www.w3.org/2000/svg" xmlns:xlink="http://www.w3.org/1999/xlink">
    <!-- Generator: Sketch 47.1 (45422) - http://www.bohemiancoding.com/sketch -->
    <title>logo</title>
    <desc>Created with Sketch.</desc>
    <defs></defs>
    <g id="Symbols" stroke="none" stroke-width="1" fill="none" fill-rule="evenodd">
        <g id="sidebar" transform="translate(-115.000000, -69.000000)" fill="#F6306E">
            <g id="Group-6">
                <g id="logo" transform="translate(115.000000, 69.000000)">
                    <g id="Group-6">
                        <path d="M21.6977,43.4594 L16.9537,51.6754 C14.4187,49.0324 12.4667,45.8244 11.3017,42.2604 L21.6977,24.3664 L21.6977,43.4594 Z M45.2507,20.3724 L54.7037,20.3724 L54.7037,49.1994 C52.2647,52.5174 49.0167,55.2014 45.2507,56.9654 L45.2507,20.3724 Z M42.0767,43.5364 L42.0767,23.7584 L23.4527,56.5364 C26.3637,58.0424 29.6127,58.9864 33.0557,59.2254 L42.0767,43.5364 Z M24.8707,20.3724 L34.4017,20.3724 L34.4017,30.8654 L24.8707,47.6404 L24.8707,20.3724 Z" id="Fill-1"></path>
                        <path d="M34.5815,7.1567 C49.7275,7.1567 62.0065,19.4357 62.0065,34.5817 C62.0065,49.7287 49.7275,62.0067 34.5815,62.0067 C19.4355,62.0067 7.1565,49.7287 7.1565,34.5817 C7.1565,19.4357 19.4355,7.1567 34.5815,7.1567 M-0.0005,34.5827 C-0.0005,53.3397 15.4135,69.1637 34.5815,69.1637 C53.8205,69.1637 69.1635,53.9657 69.1635,34.5827 C69.1635,15.5987 53.7635,-0.0003 34.5815,-0.0003 C15.1695,-0.0003 -0.0005,15.8057 -0.0005,34.5827" id="Fill-3"></path>
                    </g>
                </g>
            </g>
        </g>
    </g>
</svg>