<?xml version="1.0" encoding="UTF-8"?>
<svg width="18px" height="17px" viewBox="0 0 18 17" version="1.1" xmlns="http://www.w3.org/2000/svg" xmlns:xlink="http://www.w3.org/1999/xlink">
    <!-- Generator: Sketch 47.1 (45422) - http://www.bohemiancoding.com/sketch -->
    <title>linkedin - FontAwesome</title>
    <desc>Created with Sketch.</desc>
    <defs></defs>
    <g id="Symbols" stroke="none" stroke-width="1" fill="none" fill-rule="evenodd">
        <g id="linkedin" transform="translate(-14.000000, -14.000000)" fill="#F3EFCD">
            <g id="Group-4">
                <path d="M17.8950893,19.8325893 L17.8950893,30.8928571 L14.2120536,30.8928571 L14.2120536,19.8325893 L17.8950893,19.8325893 Z M18.1294643,16.4174107 C18.1369048,16.9605682 17.9490347,17.4144327 17.5658482,17.7790179 C17.1826618,18.143603 16.6785746,18.3258929 16.0535714,18.3258929 L16.03125,18.3258929 C15.4211279,18.3258929 14.9300614,18.143603 14.5580357,17.7790179 C14.18601,17.4144327 14,16.9605682 14,16.4174107 C14,15.8668127 14.1915903,15.4110881 14.5747768,15.0502232 C14.9579632,14.6893583 15.4583302,14.5089286 16.0758929,14.5089286 C16.6934555,14.5089286 17.1882422,14.6893583 17.5602679,15.0502232 C17.9322935,15.4110881 18.1220238,15.8668127 18.1294643,16.4174107 Z M23.5982143,21.404285 C23.7399461,21.1809029 23.8850341,20.984387 24.0334821,20.8147321 C24.1897329,20.6361598 24.3999243,20.4427094 24.6640625,20.234375 C24.9282007,20.0260406 25.2518582,19.8642119 25.6350446,19.7488839 C26.0182311,19.633556 26.4441941,19.5758929 26.9129464,19.5758929 C28.1852742,19.5758929 29.2083295,19.9981357 29.9821429,20.8426339 C30.7559562,21.6871322 31.1428571,22.924099 31.1428571,24.5535714 L31.1428571,30.8928571 L27.4709821,30.8928571 L27.4709821,24.9776786 C27.4709821,24.1964247 27.320314,23.5844516 27.0189732,23.1417411 C26.7176324,22.6990305 26.247027,22.4776786 25.6071429,22.4776786 C25.1383905,22.4776786 24.7459093,22.6060255 24.4296875,22.8627232 C24.1134657,23.1194209 23.8772329,23.4374981 23.7209821,23.8169643 C23.6391365,24.0401797 23.5982143,24.341516 23.5982143,24.7209821 L23.5982143,30.8928571 L19.9263393,30.8928571 C19.9412203,27.9240923 19.9486607,25.5171223 19.9486607,23.671875 C19.9486607,21.8266277 19.9449405,20.7254482 19.9375,20.3683036 L19.9263393,19.8325893 L23.5982143,19.8325893 L23.5982143,21.404285 L23.5982143,21.404285 Z" id="linkedin---FontAwesome"></path>
            </g>
        </g>
    </g>
</svg>